<?xml version="1.0" encoding="UTF-8" standalone="no"?><!DOCTYPE svg PUBLIC "-//W3C//DTD SVG 1.1//EN" "http://www.w3.org/Graphics/SVG/1.1/DTD/svg11.dtd"><svg width="100%" height="100%" viewBox="0 0 1024 1024" version="1.1" xmlns="http://www.w3.org/2000/svg" xmlns:xlink="http://www.w3.org/1999/xlink" xml:space="preserve" xmlns:serif="http://www.serif.com/" style="fill-rule:evenodd;clip-rule:evenodd;stroke-linecap:round;stroke-linejoin:round;stroke-miterlimit:1.5;"><g><path d="M737,690l-286.364,0l-163.636,122.727l286.364,0l163.636,-122.727Z" style="fill:none;stroke:#000;stroke-width:20.16px;"/><path d="M641.545,690l-115.909,0l-163.636,122.727l0,88.637l30,-20.455l29.318,20.455l29.318,-20.455l27.273,17.727l0,-85.909l163.636,-122.727Z" style="fill:none;stroke:#000;stroke-width:20.16px;"/><path d="M573.364,990l163.636,-106.222l-0,-193.778" style="fill:none;stroke:#000;stroke-width:20.16px;"/><path d="M287,812.727l0,177.273l286.364,-0l-0,-143.182" style="fill:none;stroke:#000;stroke-width:20.16px;"/></g><path d="M556.25,420l-90,0l0,84.25l-59.25,0l104.25,129l105.75,-129l-60.75,0l-0,-84.25Z" style="fill:none;stroke:#000;stroke-width:20.16px;"/><path d="M486.865,128c20.187,-41.719 61.558,-70.805 109.883,-71.898c69.524,-1.571 127.284,55.39 128.905,127.121c0.438,19.396 -3.273,37.898 -10.298,54.609c23.345,8.639 40.236,30.851 40.833,57.229c0.779,34.486 -26.587,63.117 -61.073,63.896c-29.795,0.674 -328.083,0.492 -351.606,1.024c-40.853,0.923 -74.77,-31.495 -75.694,-72.348c-0.891,-39.457 29.317,-72.443 68.189,-75.484c8.207,-51.43 52.23,-91.319 106.14,-92.538c15.835,-0.357 30.969,2.657 44.721,8.389Z" style="fill:none;stroke:#000;stroke-width:20.16px;"/><g><path d="M595.391,113.832l-45.591,-46.168l-121.191,0l0,184.672l166.782,-0l-0,-138.504Z" style="fill:#fff;stroke:#000;stroke-width:20.16px;"/><rect x="448.808" y="93.634" width="99.261" height="20.198"/><rect x="448.808" y="132.588" width="31.74" height="20.198"/><rect x="492.09" y="132.588" width="86.565" height="20.198"/><rect x="451.693" y="168.656" width="126.962" height="20.198"/><rect x="451.693" y="206.168" width="63.481" height="20.198"/><rect x="526.716" y="206.168" width="51.939" height="20.198"/><path d="M549.8,67.664l-0,46.168l45.591,0" style="fill:none;stroke:#000;stroke-width:20.16px;"/></g></svg>